<svg width="44" height="44" viewBox="0 0 44 44" fill="none" xmlns="http://www.w3.org/2000/svg">
<path d="M12.1367 19.7817C14.7767 24.97 19.03 29.205 24.2183 31.8633L28.2517 27.83C28.7467 27.335 29.48 27.17 30.1217 27.39C32.175 28.0683 34.3933 28.435 36.6667 28.435C37.675 28.435 38.5 29.26 38.5 30.2683V36.6667C38.5 37.675 37.675 38.5 36.6667 38.5C19.4517 38.5 5.5 24.5483 5.5 7.33333C5.5 6.325 6.325 5.5 7.33333 5.5H13.75C14.7583 5.5 15.5833 6.325 15.5833 7.33333C15.5833 9.625 15.95 11.825 16.6283 13.8783C16.83 14.52 16.6833 15.235 16.17 15.7483L12.1367 19.7817Z" fill="#9C0D0F"/>
</svg>
